HIERARCHY
ROOT pelvis
{
  OFFSET 0 100 0
  CHANNELS 6 Xposition Yposition Zposition Zrotation Xrotation Yrotation
  JOINT pelvis_right_femur
  {
    OFFSET -10.78128 -3.44521 -0.5502486
    CHANNELS 3 Zrotation Xrotation Yrotation
    JOINT right_femur_tibia
    {
      OFFSET -0.8047443 -44.0398 -0.1307829
      CHANNELS 3 Zrotation Xrotation Yrotation
      JOINT right_tibia_foot
      {
        OFFSET 3.006224 -47.83518 -5
        CHANNELS 3 Zrotation Xrotation Yrotation
        End Site
        {
          OFFSET 0 -5 15
        }
      }
    }
  }
  JOINT pelvis_left_femur
  {
    OFFSET 10.78128 -3.44521 -0.5502486
    CHANNELS 3 Zrotation Xrotation Yrotation
    JOINT left_femur_tibia
    {
      OFFSET 0.8047443 -44.0398 -0.1307829
      CHANNELS 3 Zrotation Xrotation Yrotation
      JOINT left_tibia_foot
      {
        OFFSET -4.370144 -48.10324 -4.275266
        CHANNELS 3 Zrotation Xrotation Yrotation
        End Site
        {
          OFFSET 0 -5 15
        }
      }
    }
  }
  JOINT pelvis_spine1
  {
    OFFSET 0 6.468898 -3.129235
    CHANNELS 3 Zrotation Xrotation Yrotation
    JOINT spine1
    {
      OFFSET 0 23.15396 4.99043
      CHANNELS 3 Zrotation Xrotation Yrotation
      JOINT spine2
      {
        OFFSET 0 20.79997 -5.064912
        CHANNELS 3 Zrotation Xrotation Yrotation
        JOINT neck
        {
          OFFSET 0 14.38658 9.616178
          CHANNELS 3 Zrotation Xrotation Yrotation
          End Site
          {
            OFFSET 0 20 0
          }
        }
      }
      JOINT right_manubrium
      {
        OFFSET -5.722621 16.35077 3.967754
        CHANNELS 3 Zrotation Xrotation Yrotation
        JOINT right_clavicle
        {
          OFFSET -13.16364 1.694482 -4.693211
          CHANNELS 3 Zrotation Xrotation Yrotation
          JOINT right_humerus
          {
            OFFSET -28.5034 -0.3100689 -2.792744
            CHANNELS 3 Zrotation Xrotation Yrotation
            JOINT right_radius
            {
              OFFSET -25.15693 0.02248979 -1.271978
              CHANNELS 3 Zrotation Xrotation Yrotation
              End Site
              {
                OFFSET -15 0 0
              }
            }
          }
        }
      }
      JOINT left_manubrium
      {
        OFFSET 5.722621 16.35077 3.967754
        CHANNELS 3 Zrotation Xrotation Yrotation
        JOINT left_clavicle
        {
          OFFSET 13.16364 1.694482 -4.693211
          CHANNELS 3 Zrotation Xrotation Yrotation
          JOINT left_humerus
          {
            OFFSET 29.39168 -1.063119 -2.237045
            CHANNELS 3 Zrotation Xrotation Yrotation
            JOINT left_radius
            {
              OFFSET 24.59957 -0.9528479 0.9047498
              CHANNELS 3 Zrotation Xrotation Yrotation
              End Site
              {
                OFFSET 15 -0 -0
              }
            }
          }
        }
      }
    }
  }
}
MOTION
Frames: 11
Frame Time: 0.0416666666667
0 103.5113 0 1.575127 -1.107702 0.2164979 2.686242 -15.8916 9.066784 -0 40.297 -0 -5.472288 -17.83215 -3.67566 -7.442831 11.15385 -23.63301 -0 2.819441 -0 10.29224 -16.31271 27.35459 -4.644659 -3.755831 4.162937 2.651896 9.150427 -7.63763 1.069168 22.57917 6.879395 2.879678 -23.65846 9.254582 6.888147 -19.47049 11.54546 85.01324 37.11695 -18.3438 -0 0 15.7619 -6.780173 8.094838 4.897009 5.057054 -18.67313 -1.808367 -92.83107 27.69508 20.96455 0 0 -16.29248 6.989334 16.34931 5.390244
0.3088301 103.381 1.467938 1.340356 -0.8549299 0.3869503 3.121034 -16.92072 9.088996 -0 39.56035 -0 -5.504854 -17.29829 -3.621055 -7.299995 11.31996 -23.4777 -0 3.346966 -0 9.955187 -16.59902 27.12789 -4.420657 -3.602097 4.140667 2.677038 9.129338 -7.656691 1.126141 22.42744 6.91618 2.947242 -23.87298 9.332801 6.821729 -19.40176 11.51007 85.08319 36.96505 -18.46807 -0 0 15.72926 -6.654402 8.074706 4.766001 5.236374 -18.7693 -1.726048 -92.92203 27.59587 20.96765 0 0 -16.39688 7.191518 16.27639 5.27678
0.6287936 103.3538 3.699348 0.173182 0.3469465 0.6218294 4.506854 -21.84246 7.405473 -0 35.39231 -0 -6.909039 -10.53617 -2.144778 -6.598716 11.35439 -21.69794 -0 6.093053 -0 8.168501 -17.6895 25.00275 -3.338508 -2.683418 3.843332 2.623809 9.648284 -7.749346 1.152587 21.66346 7.458765 3.772465 -24.98113 9.432664 6.494248 -19.0946 11.59022 85.85684 36.78523 -19.01851 -0 0 14.56028 -8.073673 8.442982 5.214575 6.337761 -20.17413 -1.749059 -92.53285 25.33557 20.35505 0 0 -16.99837 9.692178 15.81205 2.883898
0.9650833 103.199 6.540972 -0.5167301 1.104792 0.933046 5.274412 -25.55408 6.045869 -0 30.94493 -0 -7.686203 -6.430435 -1.151163 -6.13846 11.55548 -20.03784 -0 7.783112 -0 7.031629 -18.56972 23.24385 -2.650376 -2.0826 3.70586 2.61294 9.967487 -7.846919 1.179153 21.13124 7.733525 4.19853 -25.54544 9.458144 6.009382 -18.87068 11.60457 86.55145 36.19291 -19.56225 -0 0 13.68637 -9.278059 8.792844 5.563074 7.122352 -21.30947 -1.837422 -91.70729 23.4339 19.26829 0 0 -18.23967 11.58425 15.19601 0.8699205
1.321939 102.8013 9.997404 -0.9358597 1.583458 1.288989 5.499349 -28.71257 4.315468 -0 25.66929 -0 -8.360062 -2.896166 -0.2123835 -5.795729 11.88597 -18.1398 -0 9.001242 -0 6.024321 -19.42929 21.34407 -2.150957 -1.623562 3.618056 2.576726 10.28163 -7.955132 1.162313 20.73441 7.921859 4.498892 -25.78144 9.352755 5.321273 -18.67191 11.60847 87.42377 35.25042 -20.24878 -0 0 12.68197 -10.85371 9.185219 6.056208 7.804042 -22.58033 -2.104387 -90.46273 21.45936 17.70279 0 0 -20.17821 13.24812 14.49773 -1.099332
1.697867 102.0649 14.04097 -1.046331 1.713748 1.661823 5.13635 -31.04388 2.215187 -0 19.89415 -0 -8.918664 -0.03762226 0.6181939 -5.601417 12.37715 -16.11297 -0 9.774947 -0 5.220393 -20.18007 19.43549 -1.858784 -1.355366 3.579046 2.508697 10.59955 -8.063686 1.099257 20.51333 8.008622 4.661663 -25.67413 9.102564 4.43137 -18.52028 11.61083 88.46819 33.92103 -21.06042 -0 0 11.55927 -12.75148 9.542811 6.665065 8.330854 -23.94203 -2.579635 -88.89995 19.44795 15.75671 0 0 -22.7179 14.61728 13.7945 -2.96819
2.087041 100.9354 18.64444 -0.8652997 1.457639 2.031073 4.24791 -32.42262 -0.2356399 -0 13.88224 -0 -9.400132 2.25544 1.308505 -5.550348 13.07399 -14.0118 -0 10.27565 -0 4.503014 -20.8001 17.53003 -1.730208 -1.282053 3.565505 2.390353 10.92613 -8.163671 0.9932776 20.48798 7.998711 4.704911 -25.23839 8.705446 3.320234 -18.41618 11.60859 89.71485 32.13328 -22.0055 -0 0 10.30297 -14.94421 9.796441 7.357131 8.67538 -25.37537 -3.294964 -87.14311 17.51624 13.54882 0 0 -25.7713 15.54984 13.18967 -4.548381
2.479401 99.42208 23.77346 -0.4477668 0.8096341 2.38159 3.056183 -32.75724 -2.812865 -0 8.109115 -0 -9.819529 3.981665 1.788622 -5.625034 13.99244 -11.95489 -0 10.80762 -0 3.784087 -21.21354 15.70124 -1.696578 -1.400749 3.553812 2.216049 11.24992 -8.245207 0.8620152 20.66199 7.889309 4.637876 -24.53288 8.192072 2.000947 -18.35964 11.59355 91.14413 29.86351 -23.04609 -0 0 8.953912 -17.26344 9.866875 8.034645 8.799687 -26.79045 -4.239914 -85.36087 15.83774 11.2678 0 0 -29.10573 15.92989 12.78911 -5.649024
2.858805 97.62297 29.38259 0.08591538 -0.1681267 2.699283 1.937111 -32.08618 -5.119301 -0 3.250099 -0 -10.20149 5.116769 1.976508 -5.775313 15.08411 -10.1108 -0 11.85185 -0 2.966588 -21.30739 14.04647 -1.652618 -1.677603 3.516524 1.994175 11.54242 -8.299825 0.7367925 21.00809 7.683064 4.47237 -23.68447 7.631447 0.5397968 -18.33858 11.55148 92.68662 27.20044 -24.10069 -0 0 7.597784 -19.40167 9.694886 8.547721 8.676415 -28.03283 -5.338909 -83.76678 14.66066 9.188119 0 0 -32.3135 15.6797 12.68291 -6.068834
3.199213 95.74152 35.40246 0.5496293 -1.323908 2.959519 1.331528 -30.61533 -6.671279 -0 0.1248675 -0 -10.5919 5.612291 1.804352 -5.910361 16.17887 -8.685228 -0 14.05791 -0 1.999939 -20.93113 12.69209 -1.473389 -2.038963 3.434625 1.754112 11.76287 -8.321757 0.6594526 21.45967 7.389971 4.218944 -22.89529 7.129133 -0.9218155 -18.32882 11.46726 94.21227 24.41154 -25.04208 -0 0 6.364754 -20.92418 9.267872 8.721714 8.305268 -28.89161 -6.426954 -82.60862 14.24616 7.667113 0 0 -34.80378 14.8317 12.90002 -5.685391
3.462747 94.07093 41.72184 0.7359057 -2.431954 3.11974 1.581452 -28.66248 -7.066594 0 -0.5413541 0 -11.05803 5.388692 1.246622 -5.911954 16.94718 -7.865652 -0 18.11493 -0 0.9233633 -19.94158 11.77058 -1.062072 -2.372684 3.31356 1.544676 11.86547 -8.308432 0.6718628 21.9229 7.025651 3.883402 -22.39781 6.803407 -2.17323 -18.29403 11.32892 95.54033 21.96118 -25.71827 -0 0 5.398757 -21.37154 8.640195 8.425741 7.722619 -29.14977 -7.259367 -82.13316 14.77109 7.077136 0 0 -35.91613 13.56484 13.38265 -4.534692
